HIERARCHY
ROOT joint_Root
{
	OFFSET 0.0 0.0 0.0
	CHANNELS 6 Xposition Yposition Zposition Zrotation Xrotation Yrotation 
	JOINT Hips
	{
		OFFSET -0.726466 93.3139 -2.00062
		CHANNELS 6 Xposition Yposition Zposition Zrotation Xrotation Yrotation 
		JOINT Spine
		{
			OFFSET 15.7357 0.0 0.0
			CHANNELS 6 Xposition Yposition Zposition Zrotation Xrotation Yrotation 
			JOINT Chest
			{
				OFFSET 8.98455 -0.406207 0.0
				CHANNELS 6 Xposition Yposition Zposition Zrotation Xrotation Yrotation 
				JOINT Neck
				{
					OFFSET 16.3773 0.0 0.0
					CHANNELS 6 Xposition Yposition Zposition Zrotation Xrotation Yrotation 
					JOINT Head
					{
						OFFSET 6.45672 0.0 0.0
						CHANNELS 6 Xposition Yposition Zposition Zrotation Xrotation Yrotation 
						End Site
						{
							OFFSET 0.0 0.0 0.0
						}
					}
				}
				JOINT Shoulder_L
				{
					OFFSET 12.9942 -0.242716 4.98039
					CHANNELS 6 Xposition Yposition Zposition Zrotation Xrotation Yrotation 
					JOINT UpperArm_L
					{
						OFFSET 5.34809 0.0 0.0
						CHANNELS 6 Xposition Yposition Zposition Zrotation Xrotation Yrotation 
						JOINT LowerArm_L
						{
							OFFSET 24.3286 1.87007e-05 0.0
							CHANNELS 6 Xposition Yposition Zposition Zrotation Xrotation Yrotation 
							JOINT Hand_L
							{
								OFFSET 22.2916 0.0 0.0
								CHANNELS 6 Xposition Yposition Zposition Zrotation Xrotation Yrotation 
								End Site
								{
									OFFSET 0.0 0.0 0.0
								}
							}
						}
					}
				}
				JOINT Shoulder_R
				{
					OFFSET 12.9945 -0.242716 -4.98039
					CHANNELS 6 Xposition Yposition Zposition Zrotation Xrotation Yrotation 
					JOINT UpperArm_R
					{
						OFFSET -5.34813 0.0 0.0
						CHANNELS 6 Xposition Yposition Zposition Zrotation Xrotation Yrotation 
						JOINT LowerArm_R
						{
							OFFSET -24.3289 0.000322201 0.0
							CHANNELS 6 Xposition Yposition Zposition Zrotation Xrotation Yrotation 
							JOINT Hand_R
							{
								OFFSET -22.2915 -0.000108084 0.0
								CHANNELS 6 Xposition Yposition Zposition Zrotation Xrotation Yrotation 
								End Site
								{
									OFFSET 0.0 0.0 0.0
								}
							}
						}
					}
				}
			}
		}
		JOINT UpperLeg_L
		{
			OFFSET -2.19248 -6.46944 0.0
			CHANNELS 6 Xposition Yposition Zposition Zrotation Xrotation Yrotation 
			JOINT LowerLeg_L
			{
				OFFSET 39.0811 0.0 -1.23785e-05
				CHANNELS 6 Xposition Yposition Zposition Zrotation Xrotation Yrotation 
				JOINT Foot_L
				{
					OFFSET 40.9854 0.0 -1.26872e-05
					CHANNELS 6 Xposition Yposition Zposition Zrotation Xrotation Yrotation 
					JOINT Toes_L
					{
						OFFSET 11.7543 0.0 0.0
						CHANNELS 6 Xposition Yposition Zposition Zrotation Xrotation Yrotation 
						End Site
						{
							OFFSET 0.0 0.0 0.0
						}
					}
				}
			}
		}
		JOINT UpperLeg_R
		{
			OFFSET -2.19251 6.46944 0.0
			CHANNELS 6 Xposition Yposition Zposition Zrotation Xrotation Yrotation 
			JOINT LowerLeg_R
			{
				OFFSET -39.0811 -0.00228153 -0.0401928
				CHANNELS 6 Xposition Yposition Zposition Zrotation Xrotation Yrotation 
				JOINT Foot_R
				{
					OFFSET -40.9854 0.0 0.0
					CHANNELS 6 Xposition Yposition Zposition Zrotation Xrotation Yrotation 
					JOINT Toes_R
					{
						OFFSET -11.7543 0.0 0.0
						CHANNELS 6 Xposition Yposition Zposition Zrotation Xrotation Yrotation 
						End Site
						{
							OFFSET 0.0 0.0 0.0
						}
					}
				}
			}
		}
	}
}
MOTION
Frames:	4
Frame Time:	0.0333333
0.000000 0.000000 0.000000 0.000000 0.000000 -0.000000 92.101300 88.249000 184.793000 -80.724200 56.016700 178.480000 15.735700 0.000005 -0.000001 111.445000 80.233200 -110.331000 8.984550 -0.406207 -0.000000 10.405400 7.118720 1.578300 16.377300 -0.000001 -0.000001 11.865100 11.129500 -2.064030 6.456720 -0.000001 -0.000000 5.755090 12.808400 -4.325020 12.994200 -0.242716 4.980390 -87.976400 -3.701520 -61.308100 5.348090 -0.000007 -0.000001 -69.802400 9.664840 9.313920 24.328600 0.000019 0.000005 5.762140 12.977100 -24.197500 22.291600 -0.000001 0.000005 2.613880 5.520990 -7.404590 12.994500 -0.242716 -4.980390 89.459000 1.685020 -72.196400 -5.348130 -0.000001 -0.000004 -41.797900 8.724670 -48.628000 -24.328900 0.000322 -0.000009 3.114660 3.206840 -44.218400 -22.291500 -0.000108 -0.000004 5.166200 5.549020 -8.659690 -2.192480 -6.469440 -0.000000 175.591000 -31.472100 -27.634600 39.081100 -0.000007 -0.000012 0.015097 -0.052480 16.049600 40.985400 -0.000006 -0.000013 12.513200 -10.858200 -56.930100 11.754300 -0.000000 0.000003 -0.005419 -0.065470 -19.240900 -2.192510 6.469440 -0.000001 169.138000 26.578600 -170.552000 -39.081100 -0.002282 -0.040193 0.020568 -0.030586 29.444000 -40.985400 0.000008 0.000006 -8.686170 -4.283710 -72.774700 -11.754300 -0.000006 -0.000006 -1.086230 -1.303960 -18.712300
0.000000 0.000000 0.000000 0.000000 0.000000 -0.000000 94.741000 87.462300 182.294000 -80.084300 56.142800 177.806000 15.735700 0.000005 -0.000001 112.431000 80.179900 -111.586000 8.984550 -0.406207 -0.000000 10.397900 7.462740 1.010810 16.377300 -0.000001 -0.000001 12.004400 11.487600 -1.884850 6.456720 -0.000001 -0.000000 5.601920 13.312100 -3.865710 12.994200 -0.242716 4.980390 -88.148700 -3.383030 -61.288100 5.348090 -0.000007 -0.000001 -70.368700 10.254500 9.811340 24.328600 0.000019 0.000005 5.698830 13.203900 -23.599800 22.291600 -0.000001 0.000005 2.468070 5.529720 -7.782990 12.994500 -0.242716 -4.980390 89.345800 2.038000 -72.199700 -5.348130 -0.000001 -0.000004 -43.175900 8.492380 -49.032100 -24.328900 0.000322 -0.000009 3.249570 3.359910 -44.100800 -22.291500 -0.000108 -0.000004 5.951880 5.550740 -8.739990 -2.192480 -6.469440 -0.000000 174.681000 -32.960200 -31.495900 39.081100 -0.000007 -0.000012 0.186506 -0.450992 22.467700 40.985400 -0.000006 -0.000013 14.605900 -12.142900 -54.022300 11.754300 -0.000000 0.000003 -0.005109 -0.062521 -19.120700 -2.192510 6.469440 -0.000001 168.113000 24.895200 -169.290000 -39.081100 -0.002282 -0.040193 -0.036080 0.065355 31.071300 -40.985400 0.000008 0.000006 -10.355300 -4.143850 -71.449000 -11.754300 -0.000006 -0.000006 -2.942310 -3.351120 -21.470300
0.000000 0.000000 0.000000 0.000000 0.000000 -0.000000 97.471700 86.781400 179.257000 -80.085300 56.561000 177.396000 15.735700 0.000005 -0.000001 113.039000 80.363800 -112.640000 8.984550 -0.406207 -0.000000 10.006100 7.502500 0.140163 16.377300 -0.000001 -0.000001 12.435900 11.998900 -1.810660 6.456720 -0.000001 -0.000000 5.566790 14.013200 -3.438630 12.994200 -0.242716 4.980390 -88.445500 -2.833710 -61.235400 5.348090 -0.000007 -0.000001 -70.949400 11.043700 10.260800 24.328600 0.000019 0.000005 5.825810 13.603100 -23.451800 22.291600 -0.000001 0.000005 2.201820 5.534740 -8.005410 12.994500 -0.242716 -4.980390 89.222800 2.427170 -72.237900 -5.348130 -0.000001 -0.000004 -44.639200 9.984870 -48.426800 -24.328900 0.000322 -0.000009 3.015500 3.135360 -43.935300 -22.291500 -0.000108 -0.000004 6.422890 5.552620 -8.829910 -2.192480 -6.469440 -0.000000 176.152000 -31.616100 -33.859200 39.081100 -0.000007 -0.000012 0.215935 -0.362430 30.786600 40.985400 -0.000006 -0.000013 12.280800 -11.124600 -50.711200 11.754300 -0.000000 0.000003 -0.007024 -0.079877 -19.828600 -2.192510 6.469440 -0.000001 166.473000 22.920000 -168.691000 -39.081100 -0.002282 -0.040193 -0.138649 0.218037 33.064700 -40.985400 0.000008 0.000006 -11.798500 -3.668230 -67.686300 -11.754300 -0.000006 -0.000006 -4.039450 -4.192670 -26.601000
0.000000 0.000000 0.000000 0.000000 0.000000 -0.000000 100.340000 86.248000 175.590000 -80.832400 56.703300 178.199000 15.735700 0.000005 -0.000001 112.191000 80.467800 -112.378000 8.984550 -0.406207 -0.000000 9.955110 7.152130 -0.998408 16.377300 -0.000001 -0.000001 12.394800 12.597500 -1.766720 6.456720 -0.000001 -0.000000 5.593600 14.759000 -2.866120 12.994200 -0.242716 4.980390 -88.668000 -2.408220 -61.040500 5.348090 -0.000007 -0.000001 -71.679200 11.904100 9.721580 24.328600 0.000019 0.000005 5.639640 13.600300 -22.779700 22.291600 -0.000001 0.000005 2.185770 5.543610 -8.407670 12.994500 -0.242716 -4.980390 89.115500 2.745450 -72.134700 -5.348130 -0.000001 -0.000004 -46.119700 13.024800 -46.396000 -24.328900 0.000322 -0.000009 2.684600 2.762380 -44.227300 -22.291500 -0.000108 -0.000004 6.430210 5.558700 -9.124240 -2.192480 -6.469440 -0.000000 177.996000 -27.988600 -33.841800 39.081100 -0.000007 -0.000012 0.084480 -0.106220 38.495900 40.985400 -0.000006 -0.000013 9.088400 -15.080900 -53.013300 11.754300 -0.000000 0.000003 -0.004888 -0.060389 -19.033800 -2.192510 6.469440 -0.000001 164.434000 20.040100 -168.174000 -39.081100 -0.002282 -0.040193 -0.091534 0.128702 36.381100 -40.985400 0.000008 0.000006 -12.956900 -4.228730 -63.909600 -11.754300 -0.000006 -0.000006 -0.043080 -0.272159 -27.762000
